<mxfile host="seqgen" agent="seqgen" version="26.2.2">
  <diagram name="Diagram" id="test-1">
    <mxGraphModel dx="0" dy="0" grid="1" gridSize="10" guides="1" tooltips="1" connect="1" arrows="1" fold="1" page="0" pageScale="1" pageWidth="851" pageHeight="1100" background="#ffffff" math="0" shadow="0">
      <root>
        <mxCell id="0" />
        <mxCell id="1" parent="0" />
        <mxCell id="test-2" value="&quot;My Diagram&lt;br/&gt;with a title&quot;" parent="1" style="shape=umlFrame;whiteSpace=wrap;html=1;pointerEvents=0;width=200;height=60;" vertex="1">
          <mxGeometry x="-30" y="-90" width="620" height="200" as="geometry" />
        </mxCell>
        <mxCell id="test-3" value="A" parent="1" style="shape=umlLifeline;perimeter=lifelinePerimeter;whiteSpace=wrap;html=1;container=1;dropTarget=0;collapsible=0;recursiveResize=0;outlineConnect=0;portConstraint=eastwest;newEdgeStyle={&quot;curved&quot;:0,&quot;rounded&quot;:0};" vertex="1">
          <mxGeometry x="0" y="0" width="160" height="80" as="geometry" />
        </mxCell>
        <mxCell id="test-4" value="B" parent="1" style="shape=umlLifeline;perimeter=lifelinePerimeter;whiteSpace=wrap;html=1;container=1;dropTarget=0;collapsible=0;recursiveResize=0;outlineConnect=0;portConstraint=eastwest;newEdgeStyle={&quot;curved&quot;:0,&quot;rounded&quot;:0};" vertex="1">
          <mxGeometry x="200" y="0" width="160" height="80" as="geometry" />
        </mxCell>
        <mxCell id="test-5" value="C" parent="1" style="shape=umlLifeline;perimeter=lifelinePerimeter;whiteSpace=wrap;html=1;container=1;dropTarget=0;collapsible=0;recursiveResize=0;outlineConnect=0;portConstraint=eastwest;newEdgeStyle={&quot;curved&quot;:0,&quot;rounded&quot;:0};" vertex="1">
          <mxGeometry x="400" y="0" width="160" height="80" as="geometry" />
        </mxCell>
      </root>
    </mxGraphModel>
  </diagram>
</mxfile>
